<svg xmlns="http://www.w3.org/2000/svg" viewBox="0 0 24 24"><path d="M18.53 10.25c0 0-6.952 1.798-6.967 1.802l-.059.015.001.003C10.641 12.29 10 13.067 10 14c0 1.105.895 2 2 2 .509 0 .969-.196 1.322-.51l.001.002L18.53 10.25zM19 13A1 1 0 1 0 19 15 1 1 0 1 0 19 13zM5 13A1 1 0 1 0 5 15 1 1 0 1 0 5 13zM6 9.5A1 1 0 1 0 6 11.5 1 1 0 1 0 6 9.5zM8.5 7A1 1 0 1 0 8.5 9 1 1 0 1 0 8.5 7zM12 6A1 1 0 1 0 12 8 1 1 0 1 0 12 6zM15.438 7A1 1 0 1 0 15.438 9 1 1 0 1 0 15.438 7z"/><path fill="none" stroke="#000" stroke-linejoin="round" stroke-miterlimit="10" stroke-width="2" d="M9,19.001l6,0"/><path d="M12,3C5.935,3,1,7.935,1,14c0,1.935,0.509,3.837,1.472,5.502l0.29,0.5L4,20l-0.001-1.9L3.935,18C3.322,16.765,3,15.393,3,14c0-4.963,4.038-9,9-9s9,4.037,9,9c0,1.393-0.322,2.764-0.936,4L20,18.109V20h1.239l0.289-0.499C22.491,17.836,23,15.935,23,14C23,7.935,18.065,3,12,3z"/><path d="M3 18H6V20H3zM18 18H21V20H18z"/></svg>