<?xml version="1.0" encoding="UTF-8"?>
<svg xmlns="http://www.w3.org/2000/svg" xmlns:xlink="http://www.w3.org/1999/xlink" width="96px" height="96px" viewBox="0 0 96 96" version="1.1">
<g id="surface460452">
<path style=" stroke:none;fill-rule:nonzero;fill:rgb(100%,100%,100%);fill-opacity:1;" d="M 32.75 8 C 30.1875 8.1875 27.75 9.625 26.375 12 L 9.125 42 C 6.921875 45.8125 8.1875 49.796875 12 52 L 44 72 L 44 70 C 44 66.6875 46.6875 64 50 64 L 52 64 C 52.6875 61.453125 55.234375 60 58 60 L 60 60 C 60.6875 57.453125 63.234375 56 66 56 L 72 56 L 79.25 42.5 C 81.453125 38.6875 79.8125 34.203125 76 32 L 37.25 9.125 C 35.828125 8.296875 34.28125 7.890625 32.75 8 Z M 40 20 C 42.9375 20 45.25 22.375 45.25 25.375 C 45.25 26.578125 44.828125 28.375 44.25 30.375 C 45.421875 28.78125 47.015625 27.59375 48 27 C 50.546875 25.59375 53.875 26.40625 55.25 29 C 56.625 31.59375 55.796875 34.96875 53.25 36.375 C 52.28125 36.96875 50.578125 37.59375 48.625 38 C 50.578125 38.40625 52.265625 39.03125 53.25 39.625 C 55.796875 41.21875 56.8125 44.40625 55.25 47 C 53.6875 49.59375 50.546875 50.40625 48 49 C 47.03125 48.40625 45.625 47.21875 44.25 45.625 C 44.84375 47.421875 45.25 49.421875 45.25 50.625 C 45.25 53.625 42.9375 56 40 56 C 37.0625 56 34.75 53.625 34.75 50.625 C 34.75 49.421875 35.171875 47.625 35.75 45.625 C 34.578125 47.21875 32.984375 48.40625 32 49 C 29.453125 50.40625 26.125 49.59375 24.75 47 C 23.375 44.40625 24.203125 41.03125 26.75 39.625 C 27.71875 39.03125 29.421875 38.40625 31.375 38 C 29.421875 37.59375 27.71875 36.96875 26.75 36.375 C 24.203125 34.78125 23.1875 31.59375 24.75 29 C 26.3125 26.40625 29.453125 25.59375 32 27 C 32.984375 27.59375 34.375 28.96875 35.75 30.375 C 35.15625 28.578125 34.75 26.578125 34.75 25.375 C 34.75 22.375 37.0625 20 40 20 Z M 40 34 C 37.796875 34 36 35.796875 36 38 C 36 40.203125 37.796875 42 40 42 C 42.203125 42 44 40.203125 44 38 C 44 35.796875 42.203125 34 40 34 Z M 66 60 C 64.6875 61.3125 64 62.90625 64 64 L 64 70 C 64 71.09375 64.90625 72 66 72 C 67.09375 72 68 71.09375 68 70 L 68 64 C 68 62.90625 67.03125 61.03125 66 60 Z M 74 68 C 72.90625 68 72 68.90625 72 70 L 72 76 C 72 77.09375 72.96875 78.96875 74 80 C 75.3125 78.6875 76 77.09375 76 76 L 76 70 C 76 68.90625 75.09375 68 74 68 Z M 60 76 C 58.90625 76 57.03125 76.96875 56 78 C 57.3125 79.3125 58.90625 80 60 80 L 66 80 C 67.09375 80 68 79.09375 68 78 C 68 76.90625 67.09375 76 66 76 Z M 74 84 C 72.90625 84 72 84.90625 72 86 C 72 87.09375 72.90625 88 74 88 L 80 88 C 81.09375 88 82.6875 87.3125 84 86 C 82.96875 84.96875 81.09375 84 80 84 Z M 74 84 "/>
</g>
</svg>
