<?xml version="1.0" encoding="UTF-8"?>
<svg xmlns="http://www.w3.org/2000/svg" xmlns:xlink="http://www.w3.org/1999/xlink" width="96px" height="96px" viewBox="0 0 96 96" version="1.1">
<g id="surface453717">
<path style=" stroke:none;fill-rule:nonzero;fill:rgb(100%,100%,100%);fill-opacity:1;" d="M 56 8 C 43.375 8 32.1875 15.78125 27.125 26.75 C 15.90625 31.734375 8 42.96875 8 56 C 8 73.625 22.375 88 40 88 C 53.03125 88 64.265625 80.09375 69.25 68.875 C 80.125 63.859375 88 52.9375 88 40 C 88 22.21875 73.375 8 56 8 Z M 56 16 C 62.265625 16 68.046875 18.453125 72.375 22.5 C 72.171875 22.984375 72 23.453125 72 24 C 72 26.203125 73.796875 28 76 28 C 76.234375 28 76.40625 27.90625 76.625 27.875 C 78.125 30.40625 79.140625 33.21875 79.625 36.25 C 79.109375 36.109375 78.546875 36 78 36 C 74.6875 36 72 38.6875 72 42 C 72 45.3125 74.6875 48 78 48 C 78.203125 48 78.421875 48.015625 78.625 48 C 77.234375 51.765625 74.828125 55.015625 71.875 57.625 C 71.90625 57.078125 72 56.546875 72 56 C 72 47 68.265625 38.828125 62.25 33 C 63.34375 31.625 64 29.890625 64 28 C 64 23.578125 60.421875 20 56 20 C 52.546875 20 49.625 22.1875 48.5 25.25 C 45.78125 24.5 42.953125 24 40 24 C 39.453125 24 38.921875 24.09375 38.375 24.125 C 42.796875 19.25 49.15625 16 56 16 Z M 40 32 C 53.296875 32 64 42.703125 64 56 C 64 58.53125 63.59375 60.953125 62.875 63.25 C 62.859375 63.296875 62.765625 63.328125 62.75 63.375 C 62.703125 63.453125 62.65625 63.546875 62.625 63.625 C 62.0625 64.328125 61.75 65.21875 61.75 66.125 C 57.953125 74.34375 49.6875 80 40 80 C 32.640625 80 26.140625 76.671875 21.75 71.5 C 23.046875 70.84375 24 69.5625 24 68 C 24 65.796875 22.203125 64 20 64 C 19.125 64 18.40625 64.40625 17.75 64.875 C 16.65625 62.125 16 59.140625 16 56 C 16 46.3125 21.65625 38.046875 29.875 34.25 C 29.90625 34.234375 29.96875 34.265625 30 34.25 C 30.96875 34.25 31.90625 33.890625 32.625 33.25 C 34.953125 32.5 37.40625 32 40 32 Z M 32 40 C 27.578125 40 24 43.578125 24 48 C 24 52.421875 27.578125 56 32 56 C 36.421875 56 40 52.421875 40 48 C 40 43.578125 36.421875 40 32 40 Z M 48 40 C 45.796875 40 44 41.796875 44 44 C 44 46.203125 45.796875 48 48 48 C 50.203125 48 52 46.203125 52 44 C 52 41.796875 50.203125 40 48 40 Z M 52 58 C 48.6875 58 46 60.6875 46 64 C 46 67.3125 48.6875 70 52 70 C 55.3125 70 58 67.3125 58 64 C 58 60.6875 55.3125 58 52 58 Z M 40 68 C 37.796875 68 36 69.796875 36 72 C 36 74.203125 37.796875 76 40 76 C 42.203125 76 44 74.203125 44 72 C 44 69.796875 42.203125 68 40 68 Z M 40 68 "/>
</g>
</svg>
