<?xml version="1.0" encoding="UTF-8"?>
<svg xmlns="http://www.w3.org/2000/svg" xmlns:xlink="http://www.w3.org/1999/xlink" width="96pt" height="96pt" viewBox="0 0 96 96" version="1.1">
<defs>
<filter id="alpha" filterUnits="objectBoundingBox" x="0%" y="0%" width="100%" height="100%">
  <feColorMatrix type="matrix" in="SourceGraphic" values="0 0 0 0 1 0 0 0 0 1 0 0 0 0 1 0 0 0 1 0"/>
</filter>
<mask id="mask0">
  <g filter="url(#alpha)">
<rect x="0" y="0" width="96" height="96" style="fill:rgb(0%,0%,0%);fill-opacity:0.301961;stroke:none;"/>
  </g>
</mask>
<clipPath id="clip1">
  <rect width="96" height="96"/>
</clipPath>
<g id="surface713853" clip-path="url(#clip1)">
<path style=" stroke:none;fill-rule:nonzero;fill:rgb(100%,100%,100%);fill-opacity:1;" d="M 48.320312 80 C 48.132812 78.691406 48 77.359375 48 76 C 48 68.375 51.054688 61.472656 56 56.425781 L 56 48 L 76 16 L 20 16 L 40 48 L 40 80 Z M 48.320312 80 "/>
</g>
</defs>
<g id="surface713848">
<path style=" stroke:none;fill-rule:nonzero;fill:rgb(100%,100%,100%);fill-opacity:1;" d="M 12 12 L 84 12 L 84 20 L 12 20 Z M 76.03125 56.078125 C 70.511719 56.078125 65.515625 58.292969 61.898438 61.90625 C 58.285156 65.523438 56.070312 70.519531 56.070312 76.039062 C 56.070312 87.078125 64.996094 96 76.035156 96 C 87.074219 96 96 87.078125 96 76.035156 C 95.996094 65.007812 87.070312 56.085938 76.03125 56.078125 Z M 87.375 70.375 L 81.71875 76.03125 L 87.375 81.6875 L 81.71875 87.34375 L 76.0625 81.6875 L 70.40625 87.34375 L 64.753906 81.6875 L 70.40625 76.03125 L 64.753906 70.375 L 70.40625 64.71875 L 76.0625 70.375 L 81.71875 64.71875 Z M 87.375 70.375 "/>
<path style=" stroke:none;fill-rule:nonzero;fill:rgb(100%,100%,100%);fill-opacity:1;" d="M 49.175781 84 C 48.421875 81.464844 48 78.78125 48 76 L 44 76 L 44 49.703125 L 25.4375 20 L 70.566406 20 L 52 49.703125 L 52 61.632812 C 54.039062 58.234375 56.761719 55.300781 60 53.039062 L 60 52 L 80 20 L 80 12 L 16 12 L 16 20 L 36 52 L 36 84 Z M 49.175781 84 "/>
<use xlink:href="#surface713853" mask="url(#mask0)"/>
</g>
</svg>
