<?xml version="1.0" encoding="UTF-8" standalone="yes"?>
<svg xmlns="http://www.w3.org/2000/svg" viewBox="0 0 24 24" width="96" height="96" fill="#ffffff">
  <path d="M 5 3 L 5 6 L 3 6 L 6 9 L 9 6 L 7 6 L 7 3 L 5 3 z M 18 5 A 2 2 0 0 0 16 7 A 2 2 0 0 0 18 9 A 2 2 0 0 0 20 7 A 2 2 0 0 0 18 5 z M 12 8 A 2 2 0 0 0 10 10 A 2 2 0 0 0 12 12 A 2 2 0 0 0 14 10 A 2 2 0 0 0 12 8 z M 6 11 A 2 2 0 0 0 4 13 A 2 2 0 0 0 6 15 A 2 2 0 0 0 8 13 A 2 2 0 0 0 6 11 z M 18 11 C 16.925 11 14.989391 11.468703 14.275391 12.345703 C 15.753391 12.762703 17.296406 13.59 17.816406 15 L 22 15 L 22 13.050781 C 22 11.720781 19.335 11 18 11 z M 12 14 C 10.925 14 8.9893906 14.468703 8.2753906 15.345703 C 9.7533906 15.762703 11.296406 16.59 11.816406 18 L 16 18 L 16 16.050781 C 16 14.720781 13.335 14 12 14 z M 6 17 C 4.665 17 2 17.720781 2 19.050781 L 2 21 L 10 21 L 10 19.050781 C 10 17.720781 7.335 17 6 17 z"/>
</svg>
