<?xml version="1.0" encoding="UTF-8" standalone="yes"?>
<svg xmlns="http://www.w3.org/2000/svg" xmlns:xlink="http://www.w3.org/1999/xlink" viewBox="0 0 26 26" version="1.1" width="104" height="104" fill="#ffffff">
  <g id="surface1">
    <path style=" " d="M 16 0 C 11.664063 0 8.007813 2.761719 6.625 6.59375 C 2.773438 7.984375 0 11.675781 0 16 C 0 21.511719 4.488281 26 10 26 C 14.324219 26 18.015625 23.226563 19.40625 19.375 C 23.238281 17.992188 26 14.335938 26 10 C 26 4.464844 21.535156 0 16 0 Z M 16 2 C 20.464844 2 24 5.535156 24 10 C 24 13.023438 22.363281 15.609375 19.9375 16.96875 C 19.96875 16.652344 20 16.324219 20 16 C 20 12.945313 18.601563 10.210938 16.4375 8.375 C 16.78125 8.015625 17 7.535156 17 7 C 17 5.894531 16.105469 5 15 5 C 14.078125 5 13.292969 5.621094 13.0625 6.46875 C 12.097656 6.15625 11.070313 6 10 6 C 9.675781 6 9.347656 6.03125 9.03125 6.0625 C 10.390625 3.636719 12.976563 2 16 2 Z M 20 6 C 19.449219 6 19 6.449219 19 7 C 19 7.550781 19.449219 8 20 8 C 20.550781 8 21 7.550781 21 7 C 21 6.449219 20.550781 6 20 6 Z M 10 8 C 14.429688 8 18 11.570313 18 16 C 18 16.667969 17.933594 17.316406 17.78125 17.9375 C 17.777344 17.949219 17.753906 17.957031 17.75 17.96875 C 17.558594 18.179688 17.46875 18.464844 17.5 18.75 C 17.5 18.78125 17.5 18.8125 17.5 18.84375 C 16.359375 21.863281 13.429688 24 10 24 C 5.570313 24 2 20.429688 2 16 C 2 12.5625 4.152344 9.632813 7.1875 8.5 C 7.195313 8.496094 7.210938 8.503906 7.21875 8.5 C 7.511719 8.542969 7.8125 8.449219 8.03125 8.25 C 8.660156 8.089844 9.320313 8 10 8 Z M 20.5 9 C 19.671875 9 19 9.671875 19 10.5 C 19 11.328125 19.671875 12 20.5 12 C 21.328125 12 22 11.328125 22 10.5 C 22 9.671875 21.328125 9 20.5 9 Z M 7 12 C 5.894531 12 5 12.894531 5 14 C 5 15.105469 5.894531 16 7 16 C 8.105469 16 9 15.105469 9 14 C 9 12.894531 8.105469 12 7 12 Z M 12 12 C 11.449219 12 11 12.449219 11 13 C 11 13.550781 11.449219 14 12 14 C 12.550781 14 13 13.550781 13 13 C 13 12.449219 12.550781 12 12 12 Z M 13.5 15 C 12.671875 15 12 15.671875 12 16.5 C 12 17.328125 12.671875 18 13.5 18 C 14.328125 18 15 17.328125 15 16.5 C 15 15.671875 14.328125 15 13.5 15 Z M 7 17 C 6.449219 17 6 17.449219 6 18 C 6 18.550781 6.449219 19 7 19 C 7.550781 19 8 18.550781 8 18 C 8 17.449219 7.550781 17 7 17 Z M 11 19 C 10.449219 19 10 19.449219 10 20 C 10 20.550781 10.449219 21 11 21 C 11.550781 21 12 20.550781 12 20 C 12 19.449219 11.550781 19 11 19 Z "/>
  </g>
</svg>
